<?xml version="1.0"?><svg width="900" height="600" xmlns="http://www.w3.org/2000/svg">
 <g>
  <title>Layer 1</title>
  <rect width="900" height="600" x="0" y="0" id="rect2397" fill="#ffffff"/>
  <path d="m194,473c0,0 48.090897,36 132.96875,36c130.022369,0 242.46875,-95.08493 242.46875,-211.8125c0,-105.12561 -93.954803,-198.25 -229.5,-198.25c-130.054794,0 -206.712891,86.956055 -225,135.0625c38,-51.5 112.902283,-113.4375 207.5,-113.4375c79.533447,0 141.53125,54.770004 141.53125,131.28125c0,112.5 -119.977783,225.15625 -241.59375,225.15625c-18.878723,0 -28.375,-4 -28.375,-4z" id="path2392" fill="#0173bc"/>
  <path d="m451,509c172.041565,0 207,-80.493988 207,-125.65625c0,-72.672211 -73.515625,-127.859375 -73.515625,-127.859375c0,0 7.953125,20.949432 7.953125,54.953125c0,146.60321 -141.4375,198.5625 -141.4375,198.5625z" id="path2388" fill="#0173bc"/>
 </g>
</svg>